# 3ds Max Wavefront OBJ Exporter v0.99 - (c)2007 guruware
# File Created: 02.09.2026 22:17:45

mtllib arrow_hero.mtl

#
# object Box002
#

v  -0.5067 -0.5509 4.2180
v  -0.3289 -0.4026 4.1300
v  -0.3481 -0.3899 4.1417
v  -0.4815 -0.5011 4.2077
v  -0.3424 -0.3922 4.1494
v  -0.4758 -0.5034 4.2155
v  -0.3974 -0.3553 4.1884
v  -0.3917 -0.3576 4.1962
v  -0.4466 -0.3207 4.2352
v  -0.4602 -0.3103 4.2546
v  -0.4409 -0.3230 4.2429
v  -0.3599 -0.3179 4.1780
v  -0.4152 -0.4137 4.1907
v  -0.4128 -0.4145 4.1954
v  -0.3575 -0.3187 4.1827
v  -0.4121 -0.4142 4.2007
v  -0.3569 -0.3183 4.1880
v  -0.4133 -0.4128 4.2057
v  -0.3580 -0.3170 4.1931
v  -0.4161 -0.4107 4.2098
v  -0.3608 -0.3149 4.1971
v  -0.4201 -0.4081 4.2122
v  -0.3648 -0.3122 4.1995
v  -0.4247 -0.4054 4.2126
v  -0.3694 -0.3095 4.1999
v  -0.4291 -0.4030 4.2109
v  -0.3739 -0.3072 4.1982
v  -0.4329 -0.4013 4.2075
v  -0.3776 -0.3055 4.1948
v  -0.4352 -0.4006 4.2027
v  -0.3799 -0.3048 4.1900
v  -0.4359 -0.4009 4.1974
v  -0.3806 -0.3051 4.1848
v  -0.4347 -0.4022 4.1924
v  -0.3794 -0.3064 4.1797
v  -0.4319 -0.4044 4.1884
v  -0.3767 -0.3085 4.1757
v  -0.4279 -0.4070 4.1860
v  -0.3727 -0.3112 4.1733
v  -0.4234 -0.4097 4.1856
v  -0.3681 -0.3139 4.1729
v  -0.4189 -0.4121 4.1872
v  -0.3636 -0.3162 4.1745
v  -0.3613 -0.3163 4.1839
v  -0.3628 -0.3159 4.1808
v  -0.3608 -0.3161 4.1875
v  -0.3616 -0.3152 4.1908
v  -0.3634 -0.3138 4.1935
v  -0.3661 -0.3121 4.1951
v  -0.3692 -0.3103 4.1954
v  -0.3722 -0.3087 4.1943
v  -0.3746 -0.3076 4.1920
v  -0.3762 -0.3071 4.1888
v  -0.3766 -0.3073 4.1853
v  -0.3759 -0.3082 4.1819
v  -0.3740 -0.3096 4.1793
v  -0.3714 -0.3113 4.1777
v  -0.3683 -0.3131 4.1774
v  -0.3653 -0.3147 4.1785
v  -0.3650 -0.3140 4.1852
v  -0.3658 -0.3138 4.1836
v  -0.3648 -0.3139 4.1869
v  -0.3652 -0.3135 4.1886
v  -0.3661 -0.3128 4.1900
v  -0.3674 -0.3119 4.1908
v  -0.3689 -0.3110 4.1909
v  -0.3704 -0.3102 4.1903
v  -0.3717 -0.3096 4.1892
v  -0.3725 -0.3094 4.1876
v  -0.3727 -0.3095 4.1858
v  -0.3723 -0.3099 4.1842
v  -0.3714 -0.3107 4.1828
v  -0.3700 -0.3115 4.1820
v  -0.3685 -0.3124 4.1819
v  -0.3670 -0.3132 4.1824
v  -0.3687 -0.3117 4.1864
v  -0.4210 -0.4167 4.1941
v  -0.4194 -0.4172 4.1973
v  -0.4190 -0.4170 4.2008
v  -0.4198 -0.4161 4.2042
v  -0.4216 -0.4147 4.2069
v  -0.4243 -0.4130 4.2085
v  -0.4274 -0.4112 4.2087
v  -0.4304 -0.4096 4.2076
v  -0.4328 -0.4084 4.2053
v  -0.4344 -0.4080 4.2022
v  -0.4348 -0.4082 4.1986
v  -0.4341 -0.4091 4.1953
v  -0.4322 -0.4105 4.1926
v  -0.4296 -0.4122 4.1910
v  -0.4265 -0.4140 4.1907
v  -0.4235 -0.4156 4.1918
v  -0.4254 -0.4171 4.1973
v  -0.4246 -0.4174 4.1988
v  -0.4244 -0.4173 4.2006
v  -0.4248 -0.4168 4.2023
v  -0.4257 -0.4161 4.2036
v  -0.4270 -0.4152 4.2044
v  -0.4286 -0.4143 4.2046
v  -0.4301 -0.4135 4.2040
v  -0.4313 -0.4130 4.2029
v  -0.4321 -0.4127 4.2013
v  -0.4323 -0.4128 4.1995
v  -0.4319 -0.4133 4.1978
v  -0.4310 -0.4140 4.1965
v  -0.4297 -0.4149 4.1957
v  -0.4281 -0.4158 4.1956
v  -0.4266 -0.4166 4.1961
# 108 vertices

vn -0.4964 -0.8606 0.1139
vn 0.7888 -0.0824 -0.6091
vn -0.0398 0.7033 -0.7098
vn -0.6152 0.1653 -0.7708
vn 0.8180 0.3615 0.4473
vn 0.5404 -0.2951 0.7880
vn -0.0588 0.7717 -0.6333
vn 0.7608 0.4452 0.4723
vn -0.1565 0.7853 -0.5991
vn -0.4015 0.7537 0.5203
vn 0.7013 0.4435 0.5581
vn 0.8128 0.2341 -0.5334
vn 0.4590 -0.7000 -0.5470
vn 0.6230 -0.7511 -0.2185
vn 0.9416 0.1939 -0.2754
vn 0.6684 -0.7288 0.1487
vn 0.9773 0.2115 0.0130
vn 0.5886 -0.6364 0.4986
vn 0.9145 0.2841 0.2879
vn 0.3955 -0.4880 0.7781
vn 0.7629 0.4007 0.5074
vn 0.1186 -0.3063 0.9445
vn 0.5454 0.5434 0.6381
vn -0.2000 -0.1188 0.9726
vn 0.2952 0.6906 0.6602
vn -0.5117 0.0458 0.8580
vn 0.0504 0.8200 0.5702
vn -0.7691 0.1626 0.6182
vn -0.1518 0.9117 0.3818
vn -0.9330 0.2137 0.2896
vn -0.2806 0.9518 0.1238
vn -0.9785 0.1914 -0.0775
vn -0.3164 0.9342 -0.1647
vn -0.8986 0.0990 -0.4275
vn -0.2535 0.8617 -0.4396
vn -0.7055 -0.0494 -0.7070
vn -0.1018 0.7452 -0.6590
vn -0.4286 -0.2312 -0.8734
vn 0.1156 0.6024 -0.7898
vn -0.1101 -0.4186 -0.9015
vn 0.3658 0.4552 -0.8118
vn 0.2017 -0.5832 -0.7869
vn 0.6106 0.3258 -0.7218
vn 0.4964 0.8606 -0.1139
vn 0.0784 -0.9388 -0.3354
vn 0.1962 -0.9755 -0.0994
vn 0.2288 -0.9595 0.1645
vn 0.1715 -0.8931 0.4159
vn 0.0327 -0.7865 0.6167
vn -0.1662 -0.6559 0.7363
vn -0.3951 -0.5212 0.7565
vn -0.6191 -0.4029 0.6741
vn -0.8040 -0.3190 0.5018
vn -0.9218 -0.2823 0.2658
vn -0.9545 -0.2984 0.0019
vn -0.8971 -0.3647 -0.2495
vn -0.7583 -0.4713 -0.4503
vn -0.5594 -0.6019 -0.5699
vn -0.3305 -0.7366 -0.5901
vn -0.1066 -0.8549 -0.5077
vn -0.0773 -0.9703 -0.2293
vn 0.0144 -0.9989 -0.0456
vn 0.0398 -0.9864 0.1597
vn -0.0048 -0.9347 0.3554
vn -0.1128 -0.8517 0.5117
vn -0.2676 -0.7501 0.6047
vn -0.4457 -0.6453 0.6204
vn -0.6200 -0.5532 0.5563
vn -0.7640 -0.4879 0.4222
vn -0.8556 -0.4594 0.2385
vn -0.8810 -0.4719 0.0332
vn -0.8364 -0.5235 -0.1625
vn -0.7284 -0.6065 -0.3187
vn -0.5736 -0.7081 -0.4118
vn -0.3955 -0.8129 -0.4275
vn -0.2212 -0.9050 -0.3634
# 76 vertex normals

vt 1.0000 1.0000 0.0000
vt 0.0000 0.0000 0.0000
vt 0.2500 0.0000 0.0000
vt 1.0000 0.7500 0.0000
vt 0.2500 1.0000 0.0000
vt 0.0000 0.5000 0.0000
vt 1.0000 0.5000 0.0000
vt 0.0000 1.0000 0.0000
vt 0.0000 0.7500 0.0000
vt 0.7500 0.0000 0.0000
vt 1.0000 0.0000 0.0000
vt 0.7500 0.0000 1.0000
vt 0.7500 1.0000 1.0000
vt 0.8125 1.0000 1.0000
vt 0.8125 0.0000 1.0000
vt 0.8750 1.0000 1.0000
vt 0.8750 0.0000 1.0000
vt 0.9375 1.0000 1.0000
vt 0.9375 0.0000 1.0000
vt 1.0000 1.0000 1.0000
vt 1.0000 0.0000 1.0000
vt 0.0000 0.0000 1.0000
vt 0.0000 1.0000 1.0000
vt 0.0625 1.0000 1.0000
vt 0.0625 0.0000 1.0000
vt 0.1250 1.0000 1.0000
vt 0.1250 0.0000 1.0000
vt 0.1875 1.0000 1.0000
vt 0.1875 0.0000 1.0000
vt 0.2500 1.0000 1.0000
vt 0.2500 0.0000 1.0000
vt 0.3125 1.0000 1.0000
vt 0.3125 0.0000 1.0000
vt 0.3750 1.0000 1.0000
vt 0.3750 0.0000 1.0000
vt 0.4375 1.0000 1.0000
vt 0.4375 0.0000 1.0000
vt 0.5000 1.0000 1.0000
vt 0.5000 0.0000 1.0000
vt 0.5625 1.0000 1.0000
vt 0.5625 0.0000 1.0000
vt 0.6250 1.0000 1.0000
vt 0.6250 0.0000 1.0000
vt 0.6875 1.0000 1.0000
vt 0.6875 0.0000 1.0000
vt 0.3087 0.9619 -0.2500
vt 0.3724 0.8080 -0.2500
vt 0.5000 0.8333 -0.2500
vt 0.5000 1.0000 -0.2500
vt 0.1464 0.8536 -0.2500
vt 0.2643 0.7357 -0.2500
vt 0.0381 0.6913 -0.2500
vt 0.1920 0.6276 -0.2500
vt 0.0000 0.5000 -0.2500
vt 0.1667 0.5000 -0.2500
vt 0.0381 0.3087 -0.2500
vt 0.1920 0.3724 -0.2500
vt 0.1464 0.1464 -0.2500
vt 0.2643 0.2643 -0.2500
vt 0.3087 0.0381 -0.2500
vt 0.3724 0.1920 -0.2500
vt 0.5000 0.0000 -0.2500
vt 0.5000 0.1667 -0.2500
vt 0.6913 0.0381 -0.2500
vt 0.6276 0.1920 -0.2500
vt 0.8536 0.1464 -0.2500
vt 0.7357 0.2643 -0.2500
vt 0.9619 0.3087 -0.2500
vt 0.8080 0.3724 -0.2500
vt 1.0000 0.5000 -0.2500
vt 0.8333 0.5000 -0.2500
vt 0.9619 0.6913 -0.2500
vt 0.8080 0.6276 -0.2500
vt 0.8536 0.8536 -0.2500
vt 0.7357 0.7357 -0.2500
vt 0.6913 0.9619 -0.2500
vt 0.6276 0.8080 -0.2500
vt 0.4362 0.6540 -0.2500
vt 0.5000 0.6667 -0.2500
vt 0.3821 0.6179 -0.2500
vt 0.3460 0.5638 -0.2500
vt 0.3333 0.5000 -0.2500
vt 0.3460 0.4362 -0.2500
vt 0.3821 0.3821 -0.2500
vt 0.4362 0.3460 -0.2500
vt 0.5000 0.3333 -0.2500
vt 0.5638 0.3460 -0.2500
vt 0.6179 0.3821 -0.2500
vt 0.6540 0.4362 -0.2500
vt 0.6667 0.5000 -0.2500
vt 0.6540 0.5638 -0.2500
vt 0.6179 0.6179 -0.2500
vt 0.5638 0.6540 -0.2500
vt 0.5000 0.5000 -0.2500
vt 0.5000 1.0000 0.2500
vt 0.5000 0.8333 0.2500
vt 0.3724 0.8080 0.2500
vt 0.3087 0.9619 0.2500
vt 0.2643 0.7357 0.2500
vt 0.1464 0.8536 0.2500
vt 0.1920 0.6276 0.2500
vt 0.0381 0.6913 0.2500
vt 0.1667 0.5000 0.2500
vt 0.0000 0.5000 0.2500
vt 0.1920 0.3724 0.2500
vt 0.0381 0.3087 0.2500
vt 0.2643 0.2643 0.2500
vt 0.1464 0.1464 0.2500
vt 0.3724 0.1920 0.2500
vt 0.3087 0.0381 0.2500
vt 0.5000 0.1667 0.2500
vt 0.5000 0.0000 0.2500
vt 0.6276 0.1920 0.2500
vt 0.6913 0.0381 0.2500
vt 0.7357 0.2643 0.2500
vt 0.8536 0.1464 0.2500
vt 0.8080 0.3724 0.2500
vt 0.9619 0.3087 0.2500
vt 0.8333 0.5000 0.2500
vt 1.0000 0.5000 0.2500
vt 0.8080 0.6276 0.2500
vt 0.9619 0.6913 0.2500
vt 0.7357 0.7357 0.2500
vt 0.8536 0.8536 0.2500
vt 0.6276 0.8080 0.2500
vt 0.6913 0.9619 0.2500
vt 0.5000 0.6667 0.2500
vt 0.4362 0.6540 0.2500
vt 0.3821 0.6179 0.2500
vt 0.3460 0.5638 0.2500
vt 0.3333 0.5000 0.2500
vt 0.3460 0.4362 0.2500
vt 0.3821 0.3821 0.2500
vt 0.4362 0.3460 0.2500
vt 0.5000 0.3333 0.2500
vt 0.5638 0.3460 0.2500
vt 0.6179 0.3821 0.2500
vt 0.6540 0.4362 0.2500
vt 0.6667 0.5000 0.2500
vt 0.6540 0.5638 0.2500
vt 0.6179 0.6179 0.2500
vt 0.5638 0.6540 0.2500
# 142 texture coords

o Box002
g Box002
usemtl wire_088177027
s 4
f 4/4/4 3/3/3 2/2/2 1/1/1 
s 8
f 2/6/2 3/5/3 5/3/5 
s 98
f 5/10/5 6/9/6 1/8/1 2/7/2 
s 4
f 4/4/4 7/11/7 3/3/3 
s 8
f 5/3/5 3/5/3 7/1/7 8/11/8 
s 98
f 5/10/5 8/2/8 6/9/6 
s 4
f 10/2/10 9/3/9 4/4/4 1/1/1 
s 8
f 9/5/9 10/6/10 11/3/11 
s 98
f 1/8/1 6/9/6 11/10/11 10/7/10 
s 4
f 7/11/7 4/4/4 9/3/9 
s 8
f 7/1/7 9/5/9 11/3/11 8/11/8 
s 98
f 8/2/8 11/10/11 6/9/6 
s 8
f 15/15/15 14/14/14 13/13/13 12/12/12 
f 17/17/17 16/16/16 14/14/14 15/15/15 
f 19/19/19 18/18/18 16/16/16 17/17/17 
f 21/21/21 20/20/20 18/18/18 19/19/19 
f 23/25/23 22/24/22 20/23/20 21/22/21 
f 25/27/25 24/26/24 22/24/22 23/25/23 
f 27/29/27 26/28/26 24/26/24 25/27/25 
f 29/31/29 28/30/28 26/28/26 27/29/27 
f 31/33/31 30/32/30 28/30/28 29/31/29 
f 33/35/33 32/34/32 30/32/30 31/33/31 
f 35/37/35 34/36/34 32/34/32 33/35/33 
f 37/39/37 36/38/36 34/36/34 35/37/35 
f 39/41/39 38/40/38 36/38/36 37/39/37 
f 41/43/41 40/42/40 38/40/38 39/41/39 
f 43/45/43 42/44/42 40/42/40 41/43/41 
f 12/12/12 13/13/13 42/44/42 43/45/43 
s 1
f 12/49/12 45/48/44 44/47/44 15/46/15 
f 15/46/15 44/47/44 46/51/44 17/50/17 
f 17/50/17 46/51/44 47/53/44 19/52/19 
f 19/52/19 47/53/44 48/55/44 21/54/21 
f 21/54/21 48/55/44 49/57/44 23/56/23 
f 23/56/23 49/57/44 50/59/44 25/58/25 
f 25/58/25 50/59/44 51/61/44 27/60/27 
f 27/60/27 51/61/44 52/63/44 29/62/29 
f 29/62/29 52/63/44 53/65/44 31/64/31 
f 31/64/31 53/65/44 54/67/44 33/66/33 
f 33/66/33 54/67/44 55/69/44 35/68/35 
f 35/68/35 55/69/44 56/71/44 37/70/37 
f 37/70/37 56/71/44 57/73/44 39/72/39 
f 39/72/39 57/73/44 58/75/44 41/74/41 
f 41/74/41 58/75/44 59/77/44 43/76/43 
f 43/76/43 59/77/44 45/48/44 12/49/12 
f 45/48/44 61/79/44 60/78/44 44/47/44 
f 44/47/44 60/78/44 62/80/44 46/51/44 
f 46/51/44 62/80/44 63/81/44 47/53/44 
f 47/53/44 63/81/44 64/82/44 48/55/44 
f 48/55/44 64/82/44 65/83/44 49/57/44 
f 49/57/44 65/83/44 66/84/44 50/59/44 
f 50/59/44 66/84/44 67/85/44 51/61/44 
f 51/61/44 67/85/44 68/86/44 52/63/44 
f 52/63/44 68/86/44 69/87/44 53/65/44 
f 53/65/44 69/87/44 70/88/44 54/67/44 
f 54/67/44 70/88/44 71/89/44 55/69/44 
f 55/69/44 71/89/44 72/90/44 56/71/44 
f 56/71/44 72/90/44 73/91/44 57/73/44 
f 57/73/44 73/91/44 74/92/44 58/75/44 
f 58/75/44 74/92/44 75/93/44 59/77/44 
f 59/77/44 75/93/44 61/79/44 45/48/44 
f 61/79/44 76/94/44 60/78/44 
f 60/78/44 76/94/44 62/80/44 
f 62/80/44 76/94/44 63/81/44 
f 63/81/44 76/94/44 64/82/44 
f 64/82/44 76/94/44 65/83/44 
f 65/83/44 76/94/44 66/84/44 
f 66/84/44 76/94/44 67/85/44 
f 67/85/44 76/94/44 68/86/44 
f 68/86/44 76/94/44 69/87/44 
f 69/87/44 76/94/44 70/88/44 
f 70/88/44 76/94/44 71/89/44 
f 71/89/44 76/94/44 72/90/44 
f 72/90/44 76/94/44 73/91/44 
f 73/91/44 76/94/44 74/92/44 
f 74/92/44 76/94/44 75/93/44 
f 75/93/44 76/94/44 61/79/44 
f 14/98/14 78/97/46 77/96/45 13/95/13 
f 16/100/16 79/99/47 78/97/46 14/98/14 
f 18/102/18 80/101/48 79/99/47 16/100/16 
f 20/104/20 81/103/49 80/101/48 18/102/18 
f 22/106/22 82/105/50 81/103/49 20/104/20 
f 24/108/24 83/107/51 82/105/50 22/106/22 
f 26/110/26 84/109/52 83/107/51 24/108/24 
f 28/112/28 85/111/53 84/109/52 26/110/26 
f 30/114/30 86/113/54 85/111/53 28/112/28 
f 32/116/32 87/115/55 86/113/54 30/114/30 
f 34/118/34 88/117/56 87/115/55 32/116/32 
f 36/120/36 89/119/57 88/117/56 34/118/34 
f 38/122/38 90/121/58 89/119/57 36/120/36 
f 40/124/40 91/123/59 90/121/58 38/122/38 
f 42/126/42 92/125/60 91/123/59 40/124/40 
f 13/95/13 77/96/45 92/125/60 42/126/42 
f 78/97/46 94/128/62 93/127/61 77/96/45 
f 79/99/47 95/129/63 94/128/62 78/97/46 
f 80/101/48 96/130/64 95/129/63 79/99/47 
f 81/103/49 97/131/65 96/130/64 80/101/48 
f 82/105/50 98/132/66 97/131/65 81/103/49 
f 83/107/51 99/133/67 98/132/66 82/105/50 
f 84/109/52 100/134/68 99/133/67 83/107/51 
f 85/111/53 101/135/69 100/134/68 84/109/52 
f 86/113/54 102/136/70 101/135/69 85/111/53 
f 87/115/55 103/137/71 102/136/70 86/113/54 
f 88/117/56 104/138/72 103/137/71 87/115/55 
f 89/119/57 105/139/73 104/138/72 88/117/56 
f 90/121/58 106/140/74 105/139/73 89/119/57 
f 91/123/59 107/141/75 106/140/74 90/121/58 
f 92/125/60 108/142/76 107/141/75 91/123/59 
f 77/96/45 93/127/61 108/142/76 92/125/60 
# 86 polygons - 22 triangles

#
# object Line001
#

v  -0.4049 -0.3855 4.1859
v  -0.4086 -0.3836 4.1845
v  -0.2743 -0.1508 4.1537
v  -0.2695 -0.1508 4.1548
v  -0.4124 -0.3814 4.1849
v  -0.2799 -0.1516 4.1545
v  -0.4157 -0.3792 4.1869
v  -0.2852 -0.1530 4.1569
v  -0.4180 -0.3775 4.1902
v  -0.2895 -0.1547 4.1607
v  -0.4189 -0.3764 4.1943
v  -0.2922 -0.1566 4.1652
v  -0.4184 -0.3761 4.1987
v  -0.2928 -0.1584 4.1699
v  -0.4165 -0.3767 4.2026
v  -0.2913 -0.1597 4.1739
v  -0.4134 -0.3781 4.2054
v  -0.2878 -0.1604 4.1766
v  -0.4097 -0.3800 4.2068
v  -0.2829 -0.1603 4.1777
v  -0.4059 -0.3823 4.2064
v  -0.2774 -0.1595 4.1770
v  -0.4026 -0.3844 4.2045
v  -0.2721 -0.1582 4.1745
v  -0.4003 -0.3862 4.2012
v  -0.2678 -0.1564 4.1708
v  -0.4019 -0.3869 4.1887
v  -0.2660 -0.1514 4.1576
v  -0.2645 -0.1527 4.1616
v  -0.3999 -0.3875 4.1926
v  -0.3994 -0.3873 4.1970
v  -0.2651 -0.1545 4.1662
# 32 vertices

vn -0.0504 -0.8200 -0.5701
vn -0.2952 -0.6906 -0.6602
vn 0.0340 0.7298 -0.6828
vn 0.4012 0.6656 -0.6293
vn -0.5454 -0.5434 -0.6381
vn -0.2586 0.7717 -0.5810
vn -0.7629 -0.4005 -0.5075
vn -0.4525 0.7986 -0.3969
vn -0.9145 -0.2841 -0.2879
vn -0.5596 0.8101 -0.1746
vn -0.9773 -0.2115 -0.0130
vn -0.5930 0.8026 0.0643
vn -0.9416 -0.1939 0.2754
vn -0.5557 0.7720 0.3087
vn -0.8128 -0.2341 0.5334
vn -0.4399 0.7188 0.5384
vn -0.6106 -0.3258 0.7218
vn -0.2556 0.6524 0.7134
vn -0.3658 -0.4552 0.8118
vn -0.0383 0.5816 0.8126
vn -0.1155 -0.6024 0.7898
vn 0.1911 0.5110 0.8380
vn 0.1019 -0.7452 0.6590
vn 0.4245 0.4492 0.7861
vn 0.2535 -0.8617 0.4395
vn 0.6478 0.4106 0.6417
vn 0.1519 -0.9117 -0.3818
vn 0.7301 0.5732 -0.3720
vn 0.8799 0.4749 0.0164
vn 0.2805 -0.9518 -0.1238
vn 0.3164 -0.9342 0.1647
vn 0.8249 0.4147 0.3841
# 32 vertex normals

vt 0.6875 0.9995 0.9990
vt 0.6250 0.9995 0.9990
vt 0.6250 0.8308 0.9990
vt 0.6875 0.8294 0.9990
vt 0.5625 0.9995 0.9990
vt 0.5625 0.8330 0.9990
vt 0.5000 0.9995 0.9990
vt 0.5000 0.8356 0.9990
vt 0.4375 0.9995 0.9990
vt 0.4375 0.8381 0.9990
vt 0.3750 0.9995 0.9990
vt 0.3750 0.8403 0.9990
vt 0.3125 0.9995 0.9990
vt 0.3125 0.8418 0.9990
vt 0.2500 0.9995 0.9990
vt 0.2500 0.8423 0.9990
vt 0.1875 0.9995 0.9990
vt 0.1875 0.8418 0.9990
vt 0.1250 0.9995 0.9990
vt 0.1250 0.8403 0.9990
vt 0.0625 0.9995 0.9990
vt 0.0625 0.8381 0.9990
vt 1.0625 0.8381 0.9990
vt 1.0625 0.9995 0.9990
vt 1.0000 0.9995 0.9990
vt 1.0000 0.8356 0.9990
vt 0.9375 0.9995 0.9990
vt 0.9375 0.8330 0.9990
vt 0.7500 0.9995 0.9990
vt 0.7500 0.8289 0.9990
vt 0.8125 0.8294 0.9990
vt 0.8125 0.9995 0.9990
vt 0.8750 0.9995 0.9990
vt 0.8750 0.8308 0.9990
vt 1.0000 1.0000 1.0000
vt 1.6143 0.9995 0.9990
vt 1.8038 0.9995 0.9990
vt 1.9375 0.9995 0.9990
vt 1.9951 0.9995 0.9990
vt 1.9678 0.9995 0.9990
vt 1.3979 0.9995 0.9990
vt 1.1875 0.9995 0.9990
vt 1.0152 0.9995 0.9990
vt 0.9072 0.9995 0.9990
vt 0.8799 0.9995 0.9990
vt 1.0712 0.9995 0.9990
vt 1.2607 0.9995 0.9990
vt 1.4771 0.9995 0.9990
vt 1.8598 0.9995 0.9990
vt 1.6875 0.9995 0.9990
# 50 texture coords

o Line001
g Line001
usemtl wire_196088225
s 4
f 109/143/77 110/144/78 111/145/79 112/146/80 
f 110/144/78 113/147/81 114/148/82 111/145/79 
f 113/147/81 115/149/83 116/150/84 114/148/82 
f 115/149/83 117/151/85 118/152/86 116/150/84 
f 117/151/85 119/153/87 120/154/88 118/152/86 
f 119/153/87 121/155/89 122/156/90 120/154/88 
f 121/155/89 123/157/91 124/158/92 122/156/90 
f 124/158/92 123/157/91 125/159/93 126/160/94 
f 126/160/94 125/159/93 127/161/95 128/162/96 
f 128/162/96 127/161/95 129/163/97 130/164/98 
f 130/165/98 129/166/97 131/167/99 132/168/100 
f 132/168/100 131/167/99 133/169/101 134/170/102 
f 135/171/103 109/143/77 112/146/80 136/172/104 
f 137/173/105 138/174/106 135/171/103 136/172/104 
f 134/170/102 133/169/101 139/175/107 140/176/108 
f 140/176/108 139/175/107 138/174/106 137/173/105 
s 2
f 137/177/105 136/177/104 112/177/80 111/177/79 
f 140/177/108 137/177/105 111/177/79 114/177/82 
f 134/177/102 140/177/108 114/177/82 132/177/100 
f 132/177/100 114/177/82 116/177/84 118/177/86 
f 130/177/98 132/177/100 118/177/86 128/177/96 
f 128/177/96 118/177/86 120/177/88 126/177/94 
f 126/177/94 120/177/88 122/177/90 124/177/92 
s 1
f 121/178/89 119/179/87 117/180/85 115/181/83 
f 121/178/89 115/181/83 113/182/81 123/183/91 
f 125/184/93 123/183/91 113/182/81 127/185/95 
f 129/186/97 127/185/95 113/182/81 131/187/99 
f 133/169/101 131/187/99 113/182/81 139/188/107 
f 138/189/106 139/188/107 113/182/81 135/190/103 
f 135/190/103 113/182/81 110/191/78 109/192/77 
# 30 polygons

#
# object Object001
#

v  0.0219 0.3544 4.0880
v  0.3905 0.9933 4.0035
v  0.3935 0.9919 4.0063
v  0.0246 0.3523 4.0909
v  0.0194 0.3583 4.0864
v  0.3868 0.9952 4.0021
v  0.0173 0.3635 4.0863
v  0.3830 0.9974 4.0024
v  0.0160 0.3692 4.0878
v  0.3797 0.9996 4.0044
v  0.0158 0.3744 4.0907
v  0.3774 1.0014 4.0077
v  0.0165 0.3785 4.0944
v  0.3765 1.0025 4.0119
v  0.0182 0.3807 4.0985
v  0.3770 1.0027 4.0162
v  0.3820 1.0007 4.0230
v  0.3790 1.0021 4.0201
v  0.0205 0.3808 4.1023
v  0.0232 0.3788 4.1053
v  0.3857 0.9988 4.0243
v  0.0258 0.3748 4.1069
v  0.3895 0.9966 4.0240
v  0.0278 0.3696 4.1070
v  0.3955 0.9913 4.0102
v  0.0269 0.3524 4.0947
v  0.3960 0.9915 4.0146
v  0.0286 0.3546 4.0988
v  0.3951 0.9926 4.0187
v  0.0294 0.3587 4.1026
v  0.3928 0.9944 4.0220
v  0.0291 0.3640 4.1055
# 32 vertices

vn -0.4336 -0.7877 -0.4377
vn 0.6106 0.3258 -0.7218
vn 0.8128 0.2342 -0.5334
vn -0.1595 -0.9726 -0.1690
vn -0.6811 -0.5166 -0.5189
vn 0.3658 0.4552 -0.8118
vn -0.8548 -0.2673 -0.4449
vn 0.1156 0.6024 -0.7898
vn -0.9561 -0.0783 -0.2823
vn -0.1018 0.7452 -0.6590
vn -0.9958 0.0516 -0.0755
vn -0.2535 0.8617 -0.4395
vn -0.9796 0.1308 0.1524
vn -0.3163 0.9343 -0.1646
vn -0.9070 0.1615 0.3889
vn -0.2805 0.9518 0.1238
vn 0.0503 0.8200 0.5702
vn -0.1518 0.9117 0.3818
vn -0.7770 0.1331 0.6153
vn -0.6070 0.0420 0.7936
vn 0.2952 0.6906 0.6602
vn -0.4248 -0.0903 0.9008
vn 0.5454 0.5434 0.6381
vn -0.2449 -0.2476 0.9374
vn 0.9416 0.1939 -0.2754
vn 0.0433 -0.9777 0.2056
vn 0.9773 0.2115 0.0130
vn 0.1081 -0.8310 0.5457
vn 0.9145 0.2841 0.2879
vn 0.0507 -0.6280 0.7765
vn 0.7629 0.4006 0.5075
vn -0.0793 -0.4277 0.9004
# 32 vertex normals

vt 0.6875 0.4634 0.9990
vt 0.6875 0.0005 0.9990
vt 0.7500 0.0005 0.9990
vt 0.7500 0.4639 0.9990
vt 0.6250 0.4620 0.9990
vt 0.6250 0.0005 0.9990
vt 0.5625 0.4598 0.9990
vt 0.5625 0.0005 0.9990
vt 0.5000 0.4573 0.9990
vt 0.5000 0.0005 0.9990
vt 0.4375 0.4547 0.9990
vt 0.4375 0.0005 0.9990
vt 0.3750 0.4526 0.9990
vt 0.3750 0.0005 0.9990
vt 0.3125 0.4511 0.9990
vt 0.3125 0.0005 0.9990
vt 0.1875 0.0005 0.9990
vt 0.2500 0.0005 0.9990
vt 0.2500 0.4506 0.9990
vt 0.1875 0.4511 0.9990
vt 0.1250 0.0005 0.9990
vt 0.1250 0.4526 0.9990
vt 0.0625 0.0005 0.9990
vt 0.0625 0.4547 0.9990
vt 0.8125 0.0005 0.9990
vt 0.8125 0.4634 0.9990
vt 0.8750 0.0005 0.9990
vt 0.8750 0.4620 0.9990
vt 0.9375 0.0005 0.9990
vt 0.9375 0.4598 0.9990
vt 1.0000 0.0005 0.9990
vt 1.0000 0.4573 0.9990
vt 1.0625 0.0005 0.9990
vt 1.0625 0.4547 0.9990
vt -0.1768 0.0005 0.9990
vt -0.3663 0.0005 0.9990
vt -0.5000 0.0005 0.9990
vt 0.0396 0.0005 0.9990
vt 0.4223 0.0005 0.9990
vt 0.5303 0.0005 0.9990
vt 0.5576 0.0005 0.9990
vt 0.3663 0.0005 0.9990
vt -0.5576 0.0005 0.9990
vt -0.5303 0.0005 0.9990
vt -0.4223 0.0005 0.9990
vt -0.2500 0.0005 0.9990
vt 0.1768 0.0005 0.9990
vt -0.0396 0.0005 0.9990
vt 1.0000 1.0000 1.0000
# 49 texture coords

o Object001
g Object001
usemtl wire_088177027
s 2
f 141/193/109 142/194/110 143/195/111 144/196/112 
f 145/197/113 146/198/114 142/194/110 141/193/109 
f 147/199/115 148/200/116 146/198/114 145/197/113 
f 149/201/117 150/202/118 148/200/116 147/199/115 
f 151/203/119 152/204/120 150/202/118 149/201/117 
f 153/205/121 154/206/122 152/204/120 151/203/119 
f 154/206/122 153/205/121 155/207/123 156/208/124 
f 157/209/125 158/210/126 159/211/127 160/212/128 
f 161/213/129 157/209/125 160/212/128 162/214/130 
f 163/215/131 161/213/129 162/214/130 164/216/132 
f 143/195/111 165/217/133 166/218/134 144/196/112 
f 165/217/133 167/219/135 168/220/136 166/218/134 
f 167/219/135 169/221/137 170/222/138 168/220/136 
f 169/221/137 171/223/139 172/224/140 170/222/138 
f 171/223/139 163/225/131 164/226/132 172/224/140 
f 159/211/127 158/210/126 156/208/124 155/207/123 
s 1
f 161/227/129 163/228/131 171/229/139 157/230/125 
f 158/210/126 157/230/125 171/229/139 156/231/124 
f 154/232/122 156/231/124 171/229/139 152/233/120 
f 150/202/118 152/233/120 171/229/139 148/234/116 
f 148/234/116 171/229/139 169/235/137 167/236/135 
f 148/234/116 167/236/135 165/237/133 143/238/111 
f 146/239/114 148/234/116 143/238/111 142/240/110 
s 4
f 141/241/109 144/241/112 166/241/134 145/241/113 
f 145/241/113 166/241/134 168/241/136 147/241/115 
f 147/241/115 168/241/136 170/241/138 172/241/140 
f 149/241/117 147/241/115 172/241/140 151/241/119 
f 151/241/119 172/241/140 164/241/132 162/241/130 
f 153/241/121 151/241/119 162/241/130 160/241/128 
f 155/241/123 153/241/121 160/241/128 159/241/127 
# 30 polygons

#
# object Object002
#

v  0.0269 0.3524 4.0947
v  -0.2645 -0.1527 4.1616
v  -0.2660 -0.1514 4.1576
v  0.0246 0.3523 4.0909
v  0.0286 0.3546 4.0988
v  -0.2651 -0.1545 4.1662
v  0.0294 0.3587 4.1026
v  -0.2678 -0.1564 4.1708
v  0.0291 0.3640 4.1055
v  -0.2721 -0.1582 4.1745
v  0.0278 0.3696 4.1070
v  -0.2774 -0.1595 4.1770
v  0.0258 0.3748 4.1069
v  -0.2829 -0.1603 4.1777
v  0.0232 0.3788 4.1053
v  -0.2878 -0.1604 4.1766
v  0.0205 0.3808 4.1023
v  -0.2913 -0.1597 4.1739
v  -0.2928 -0.1584 4.1699
v  0.0182 0.3807 4.0985
v  -0.2922 -0.1566 4.1652
v  0.0165 0.3785 4.0944
v  -0.2895 -0.1547 4.1607
v  0.0158 0.3744 4.0907
v  -0.2852 -0.1530 4.1569
v  0.0160 0.3692 4.0878
v  -0.2799 -0.1516 4.1545
v  0.0173 0.3635 4.0863
v  -0.2743 -0.1508 4.1537
v  0.0194 0.3583 4.0864
v  -0.2695 -0.1508 4.1548
v  0.0219 0.3544 4.0880
# 32 vertices

vn 0.9070 -0.1615 -0.3889
vn 0.5556 -0.7720 -0.3087
vn 0.4399 -0.7188 -0.5384
vn 0.7770 -0.1331 -0.6153
vn 0.9796 -0.1308 -0.1524
vn 0.5930 -0.8026 -0.0643
vn 0.9958 -0.0516 0.0755
vn 0.5596 -0.8101 0.1746
vn 0.9561 0.0783 0.2823
vn 0.4525 -0.7986 0.3969
vn 0.8548 0.2673 0.4449
vn 0.2586 -0.7717 0.5810
vn 0.6811 0.5166 0.5189
vn -0.0340 -0.7298 0.6828
vn 0.4336 0.7877 0.4377
vn -0.4012 -0.6656 0.6293
vn 0.1595 0.9726 0.1690
vn -0.7301 -0.5732 0.3720
vn -0.8799 -0.4749 -0.0164
vn -0.0433 0.9777 -0.2056
vn -0.8249 -0.4147 -0.3841
vn -0.1081 0.8310 -0.5457
vn -0.6478 -0.4106 -0.6417
vn -0.0507 0.6280 -0.7765
vn -0.4245 -0.4492 -0.7861
vn 0.0793 0.4277 -0.9004
vn -0.1911 -0.5110 -0.8380
vn 0.2449 0.2476 -0.9374
vn 0.0383 -0.5816 -0.8126
vn 0.4248 0.0903 -0.9008
vn 0.2556 -0.6524 -0.7134
vn 0.6070 -0.0420 -0.7936
# 32 vertex normals

vt 0.8125 0.4634 0.9990
vt 0.8125 0.8294 0.9990
vt 0.7500 0.8289 0.9990
vt 0.7500 0.4639 0.9990
vt 0.8750 0.4620 0.9990
vt 0.8750 0.8308 0.9990
vt 0.9375 0.4598 0.9990
vt 0.9375 0.8330 0.9990
vt 1.0000 0.4573 0.9990
vt 1.0000 0.8356 0.9990
vt 1.0625 0.4547 0.9990
vt 1.0625 0.8381 0.9990
vt 0.1250 0.4526 0.9990
vt 0.1250 0.8403 0.9990
vt 0.0625 0.8381 0.9990
vt 0.0625 0.4547 0.9990
vt 0.1875 0.4511 0.9990
vt 0.1875 0.8418 0.9990
vt 0.2500 0.4506 0.9990
vt 0.2500 0.8423 0.9990
vt 0.3125 0.8418 0.9990
vt 0.3125 0.4511 0.9990
vt 0.3750 0.8403 0.9990
vt 0.3750 0.4526 0.9990
vt 0.4375 0.8381 0.9990
vt 0.4375 0.4547 0.9990
vt 0.5000 0.8356 0.9990
vt 0.5000 0.4573 0.9990
vt 0.5625 0.8330 0.9990
vt 0.5625 0.4598 0.9990
vt 0.6250 0.8308 0.9990
vt 0.6250 0.4620 0.9990
vt 0.6875 0.8294 0.9990
vt 0.6875 0.4634 0.9990
vt 1.0000 1.0000 1.0000
# 35 texture coords

o Object002
g Object002
usemtl wire_008008136
s 1
f 173/242/141 174/243/142 175/244/143 176/245/144 
f 177/246/145 178/247/146 174/243/142 173/242/141 
f 179/248/147 180/249/148 178/247/146 177/246/145 
f 181/250/149 182/251/150 180/249/148 179/248/147 
f 183/252/151 184/253/152 182/251/150 181/250/149 
f 185/254/153 186/255/154 184/256/152 183/257/151 
f 187/258/155 188/259/156 186/255/154 185/254/153 
f 188/259/156 187/258/155 189/260/157 190/261/158 
f 191/262/159 190/261/158 189/260/157 192/263/160 
f 193/264/161 191/262/159 192/263/160 194/265/162 
f 195/266/163 193/264/161 194/265/162 196/267/164 
f 197/268/165 195/266/163 196/267/164 198/269/166 
f 199/270/167 197/268/165 198/269/166 200/271/168 
f 201/272/169 199/270/167 200/271/168 202/273/170 
f 203/274/171 201/272/169 202/273/170 204/275/172 
f 175/244/143 203/274/171 204/275/172 176/245/144 
s 2
f 203/276/171 175/276/143 174/276/142 201/276/169 
f 201/276/169 174/276/142 178/276/146 199/276/167 
f 199/276/167 178/276/146 180/276/148 182/276/150 
f 197/276/165 199/276/167 182/276/150 195/276/163 
f 195/276/163 182/276/150 184/276/152 186/276/154 
f 193/276/161 195/276/163 186/276/154 188/276/156 
f 191/276/159 193/276/161 188/276/156 190/276/158 
s 4
f 173/276/141 176/276/144 204/276/172 202/276/170 
f 177/276/145 173/276/141 202/276/170 200/276/168 
f 179/276/147 177/276/145 200/276/168 181/276/149 
f 181/276/149 200/276/168 198/276/166 196/276/164 
f 183/276/151 181/276/149 196/276/164 185/276/153 
f 185/276/153 196/276/164 194/276/162 187/276/155 
f 187/276/155 194/276/162 192/276/160 189/276/157 
# 30 polygons

